<?xml version="1.0" standalone="no"?>
<!DOCTYPE svg PUBLIC "-//W3C//DTD SVG 20010904//EN"
 "http://www.w3.org/TR/2001/REC-SVG-20010904/DTD/svg10.dtd">
<svg version="1.0" xmlns="http://www.w3.org/2000/svg"
 width="700.000000pt" height="700.000000pt" viewBox="0 0 700.000000 700.000000"
 preserveAspectRatio="xMidYMid meet">
<metadata>
Created by potrace 1.14, written by Peter Selinger 2001-2017
</metadata>
<g transform="translate(0.000000,700.000000) scale(0.100000,-0.100000)"
fill="#000000" stroke="none">
<path d="M2142 5856 c-248 -63 -419 -272 -426 -520 -5 -154 53 -296 165 -408
207 -205 533 -213 752 -17 194 172 236 465 102 695 -59 100 -193 204 -307 239
-73 22 -220 28 -286 11z"/>
<path d="M2945 5860 c-8 -12 -9 -1079 -1 -1087 3 -4 983 -7 1084 -3 10 0 12
113 10 548 l-3 547 -542 3 c-360 1 -544 -1 -548 -8z"/>
<path d="M4167 5858 c-7 -20 -3 -1076 5 -1083 11 -11 1080 -8 1087 3 5 8 7
1055 2 1085 0 4 -246 7 -545 7 -426 0 -545 -3 -549 -12z"/>
<path d="M1721 4640 c-10 -7 -8 -1076 2 -1087 13 -13 1087 -12 1088 1 1 6 2
251 3 544 1 353 -2 536 -9 540 -12 8 -1073 10 -1084 2z"/>
<path d="M2949 4639 c-10 -6 -16 -1070 -5 -1087 3 -5 237 -8 548 -8 l543 1 0
550 0 550 -538 0 c-296 0 -543 -2 -548 -6z"/>
<path d="M1718 3418 c-6 -12 -3 -1090 4 -1094 11 -7 1074 -8 1085 -1 4 3 8
250 8 549 l0 543 -547 3 c-302 1 -549 1 -550 0z"/>
<path d="M2940 3363 c-3 -310 0 -1036 3 -1040 4 -3 814 -6 1045 -4 l52 1 -2
548 -3 547 -547 3 -548 2 0 -57z"/>
<path d="M4167 3413 c-7 -13 -3 -1081 5 -1088 7 -8 1073 -9 1085 -2 6 4 10
1027 4 1085 -1 9 -117 12 -545 12 -300 0 -547 -3 -549 -7z"/>
<path d="M1722 2185 c-10 -15 -11 -1068 -1 -1081 9 -12 1066 -14 1084 -2 7 4
10 184 9 540 -1 293 -2 538 -3 543 -2 14 -1080 14 -1089 0z"/>
<path d="M2944 2188 c-8 -12 -6 -1079 1 -1086 7 -8 1050 -12 1078 -5 16 4 17
37 15 551 l-3 547 -543 0 c-299 0 -546 -3 -548 -7z"/>
</g>
</svg>
