<svg width="79" height="116" viewBox="0 0 79 116" fill="none" xmlns="http://www.w3.org/2000/svg">
<g filter="url(#filter0_d_169_80)">
<rect x="9.88892" y="20.7936" width="18.7143" height="18.7143" rx="0.5" fill="#32A041"/>
<path d="M9.88892 42.0873C9.88892 41.8111 10.1128 41.5873 10.3889 41.5873H28.1032C28.3793 41.5873 28.6032 41.8111 28.6032 42.0873V59.8016C28.6032 60.0777 28.3793 60.3016 28.1032 60.3016H10.3889C10.1128 60.3016 9.88892 60.0777 9.88892 59.8016V42.0873Z" fill="#32A041"/>
<path d="M9.88892 62.8809C9.88892 62.6048 10.1128 62.3809 10.3889 62.3809H28.1032C28.3793 62.3809 28.6032 62.6048 28.6032 62.8809V80.5952C28.6032 80.8713 28.3793 81.0952 28.1032 81.0952H10.3889C10.1128 81.0952 9.88892 80.8713 9.88892 80.5952V62.8809Z" fill="#32A041"/>
<path d="M30.6826 21.2936C30.6826 21.0175 30.9065 20.7936 31.1826 20.7936H48.8969C49.173 20.7936 49.3969 21.0175 49.3969 21.2936V39.0079C49.3969 39.2841 49.173 39.5079 48.8969 39.5079H31.1826C30.9065 39.5079 30.6826 39.2841 30.6826 39.0079V21.2936Z" fill="#32A041"/>
<rect x="30.6826" width="18.7143" height="18.7143" rx="0.5" fill="#32A041"/>
<rect x="51.4763" width="18.7143" height="18.7143" rx="0.5" fill="#32A041"/>
<rect x="30.6826" y="41.5873" width="18.7143" height="18.7143" rx="0.5" fill="#32A041"/>
<rect x="51.4763" y="41.5873" width="18.7143" height="18.7143" rx="0.5" fill="#32A041"/>
<rect x="30.6826" y="62.3809" width="18.7143" height="18.7143" rx="0.5" fill="#32A041"/>
<circle cx="19.2461" cy="9.35714" r="9.35714" fill="#C9181E"/>
<g filter="url(#filter1_d_169_80)">
<path d="M17.632 102.473C17.632 103.505 17.36 104.417 16.816 105.209C16.28 106.001 15.508 106.621 14.5 107.069C13.492 107.517 12.28 107.741 10.864 107.741C9.296 107.741 7.98 107.513 6.916 107.057C5.86 106.593 4.984 106.021 4.288 105.341L6.28 103.133C6.896 103.669 7.576 104.085 8.32 104.381C9.064 104.669 9.88 104.813 10.768 104.813C11.32 104.813 11.804 104.733 12.22 104.573C12.636 104.413 12.96 104.181 13.192 103.877C13.424 103.573 13.54 103.205 13.54 102.773C13.54 102.365 13.448 102.021 13.264 101.741C13.08 101.461 12.768 101.209 12.328 100.985C11.896 100.761 11.292 100.533 10.516 100.301C9.22 99.9014 8.176 99.4614 7.384 98.9814C6.6 98.5014 6.028 97.9454 5.668 97.3134C5.316 96.6814 5.14 95.9454 5.14 95.1054C5.14 94.0894 5.42 93.2214 5.98 92.5014C6.548 91.7814 7.308 91.2334 8.26 90.8574C9.212 90.4734 10.26 90.2814 11.404 90.2814C12.692 90.2814 13.828 90.4694 14.812 90.8454C15.796 91.2134 16.648 91.7414 17.368 92.4294L15.508 94.5654C14.948 94.0934 14.344 93.7454 13.696 93.5214C13.048 93.2894 12.388 93.1734 11.716 93.1734C11.22 93.1734 10.784 93.2374 10.408 93.3654C10.032 93.4854 9.74 93.6654 9.532 93.9054C9.324 94.1454 9.22 94.4454 9.22 94.8054C9.22 95.1574 9.32 95.4534 9.52 95.6934C9.72 95.9334 10.068 96.1614 10.564 96.3774C11.06 96.5854 11.748 96.8294 12.628 97.1094C13.676 97.4294 14.572 97.8134 15.316 98.2614C16.068 98.7014 16.64 99.2574 17.032 99.9294C17.432 100.601 17.632 101.449 17.632 102.473ZM30.7986 103.661C30.7986 104.141 30.8626 104.489 30.9906 104.705C31.1266 104.921 31.3426 105.085 31.6386 105.197L30.8586 107.693C30.1066 107.621 29.4706 107.457 28.9506 107.201C28.4386 106.937 28.0346 106.541 27.7386 106.013C27.2506 106.597 26.6266 107.033 25.8666 107.321C25.1066 107.601 24.3306 107.741 23.5386 107.741C22.2266 107.741 21.1786 107.369 20.3946 106.625C19.6186 105.873 19.2306 104.909 19.2306 103.733C19.2306 102.349 19.7706 101.281 20.8506 100.529C21.9386 99.7774 23.4666 99.4014 25.4346 99.4014H27.1506V98.9214C27.1506 98.2574 26.9346 97.7654 26.5026 97.4454C26.0786 97.1254 25.4546 96.9654 24.6306 96.9654C24.2226 96.9654 23.6986 97.0254 23.0586 97.1454C22.4186 97.2574 21.7786 97.4214 21.1386 97.6374L20.2626 95.1174C21.0866 94.8054 21.9426 94.5694 22.8306 94.4094C23.7266 94.2494 24.5266 94.1694 25.2306 94.1694C27.1266 94.1694 28.5266 94.5574 29.4306 95.3334C30.3426 96.1014 30.7986 97.2134 30.7986 98.6694V103.661ZM24.8466 105.029C25.2546 105.029 25.6826 104.909 26.1306 104.669C26.5786 104.421 26.9186 104.073 27.1506 103.625V101.561H26.2146C25.1586 101.561 24.3826 101.725 23.8866 102.053C23.3906 102.373 23.1426 102.845 23.1426 103.469C23.1426 103.957 23.2906 104.341 23.5866 104.621C23.8906 104.893 24.3106 105.029 24.8466 105.029ZM41.1093 89.5254V103.325C41.1093 103.837 41.2533 104.205 41.5413 104.429C41.8373 104.645 42.2413 104.753 42.7533 104.753C43.0813 104.753 43.3973 104.717 43.7013 104.645C44.0053 104.565 44.2893 104.473 44.5533 104.369L45.4653 106.901C45.0333 107.125 44.5133 107.321 43.9053 107.489C43.2973 107.657 42.5893 107.741 41.7813 107.741C40.2453 107.741 39.1173 107.301 38.3973 106.421C37.6773 105.533 37.3173 104.345 37.3173 102.857V92.1174H33.5613V89.5254H41.1093ZM59.5799 103.661C59.5799 104.141 59.6439 104.489 59.7719 104.705C59.9079 104.921 60.1239 105.085 60.4199 105.197L59.6399 107.693C58.8879 107.621 58.2519 107.457 57.7319 107.201C57.2199 106.937 56.8159 106.541 56.5199 106.013C56.0319 106.597 55.4079 107.033 54.6479 107.321C53.8879 107.601 53.1119 107.741 52.3199 107.741C51.0079 107.741 49.9599 107.369 49.1759 106.625C48.3999 105.873 48.0119 104.909 48.0119 103.733C48.0119 102.349 48.5519 101.281 49.6319 100.529C50.7199 99.7774 52.2479 99.4014 54.2159 99.4014H55.9319V98.9214C55.9319 98.2574 55.7159 97.7654 55.2839 97.4454C54.8599 97.1254 54.2359 96.9654 53.4119 96.9654C53.0039 96.9654 52.4799 97.0254 51.8399 97.1454C51.1999 97.2574 50.5599 97.4214 49.9199 97.6374L49.0439 95.1174C49.8679 94.8054 50.7239 94.5694 51.6119 94.4094C52.5079 94.2494 53.3079 94.1694 54.0119 94.1694C55.9079 94.1694 57.3079 94.5574 58.2119 95.3334C59.1239 96.1014 59.5799 97.2134 59.5799 98.6694V103.661ZM53.6279 105.029C54.0359 105.029 54.4639 104.909 54.9119 104.669C55.3599 104.421 55.6999 104.073 55.9319 103.625V101.561H54.9959C53.9399 101.561 53.1639 101.725 52.6679 102.053C52.1719 102.373 51.9239 102.845 51.9239 103.469C51.9239 103.957 52.0719 104.341 52.3679 104.621C52.6719 104.893 53.0919 105.029 53.6279 105.029ZM68.3545 105.029C68.9865 105.029 69.4945 104.929 69.8785 104.729C70.2705 104.529 70.4665 104.229 70.4665 103.829C70.4665 103.557 70.3905 103.329 70.2385 103.145C70.0865 102.961 69.7945 102.785 69.3625 102.617C68.9305 102.449 68.2905 102.249 67.4425 102.017C66.6665 101.809 65.9785 101.545 65.3785 101.225C64.7865 100.905 64.3225 100.493 63.9865 99.9894C63.6585 99.4854 63.4945 98.8574 63.4945 98.1054C63.4945 97.3454 63.7065 96.6694 64.1305 96.0774C64.5545 95.4854 65.1785 95.0214 66.0025 94.6854C66.8265 94.3414 67.8345 94.1694 69.0265 94.1694C70.1625 94.1694 71.1505 94.3174 71.9905 94.6134C72.8385 94.9014 73.5705 95.2694 74.1865 95.7174L72.6745 97.9494C72.1465 97.6214 71.5785 97.3614 70.9705 97.1694C70.3625 96.9694 69.7505 96.8694 69.1345 96.8694C68.5185 96.8694 68.0585 96.9534 67.7545 97.1214C67.4585 97.2814 67.3105 97.5254 67.3105 97.8534C67.3105 98.0694 67.3865 98.2574 67.5385 98.4174C67.6985 98.5694 67.9945 98.7294 68.4265 98.8974C68.8585 99.0574 69.4905 99.2574 70.3225 99.4974C71.1465 99.7294 71.8625 99.9974 72.4705 100.301C73.0865 100.605 73.5625 101.013 73.8985 101.525C74.2345 102.029 74.4025 102.697 74.4025 103.529C74.4025 104.457 74.1265 105.237 73.5745 105.869C73.0225 106.493 72.2905 106.961 71.3785 107.273C70.4665 107.585 69.4665 107.741 68.3785 107.741C67.1465 107.741 66.0585 107.565 65.1145 107.213C64.1705 106.861 63.3665 106.397 62.7025 105.821L64.6105 103.685C65.1065 104.069 65.6665 104.389 66.2905 104.645C66.9225 104.901 67.6105 105.029 68.3545 105.029Z" fill="white"/>
</g>
</g>
<defs>
<filter id="filter0_d_169_80" x="0.288086" y="0" width="78.1145" height="115.741" filterUnits="userSpaceOnUse" color-interpolation-filters="sRGB">
<feFlood flood-opacity="0" result="BackgroundImageFix"/>
<feColorMatrix in="SourceAlpha" type="matrix" values="0 0 0 0 0 0 0 0 0 0 0 0 0 0 0 0 0 0 127 0" result="hardAlpha"/>
<feOffset dy="4"/>
<feGaussianBlur stdDeviation="2"/>
<feComposite in2="hardAlpha" operator="out"/>
<feColorMatrix type="matrix" values="0 0 0 0 0 0 0 0 0 0 0 0 0 0 0 0 0 0 0.25 0"/>
<feBlend mode="normal" in2="BackgroundImageFix" result="effect1_dropShadow_169_80"/>
<feBlend mode="normal" in="SourceGraphic" in2="effect1_dropShadow_169_80" result="shape"/>
</filter>
<filter id="filter1_d_169_80" x="0.288086" y="89.5254" width="78.1145" height="26.216" filterUnits="userSpaceOnUse" color-interpolation-filters="sRGB">
<feFlood flood-opacity="0" result="BackgroundImageFix"/>
<feColorMatrix in="SourceAlpha" type="matrix" values="0 0 0 0 0 0 0 0 0 0 0 0 0 0 0 0 0 0 127 0" result="hardAlpha"/>
<feOffset dy="4"/>
<feGaussianBlur stdDeviation="2"/>
<feComposite in2="hardAlpha" operator="out"/>
<feColorMatrix type="matrix" values="0 0 0 0 0 0 0 0 0 0 0 0 0 0 0 0 0 0 0.25 0"/>
<feBlend mode="normal" in2="BackgroundImageFix" result="effect1_dropShadow_169_80"/>
<feBlend mode="normal" in="SourceGraphic" in2="effect1_dropShadow_169_80" result="shape"/>
</filter>
</defs>
</svg>
